<mxfile host="app.diagrams.net" modified="2020-12-04T01:45:55.520Z" agent="5.0 (Windows NT 10.0; Win64; x64) AppleWebKit/537.36 (KHTML, like Gecko) Chrome/87.0.4280.66 Safari/537.36" etag="8pceBqFLRp_YwG66viKE" version="13.10.7" type="github">
  <diagram id="kgpKYQtTHZ0yAKxKKP6v" name="Page-1">
    <mxGraphModel dx="1886" dy="610" grid="1" gridSize="10" guides="1" tooltips="1" connect="1" arrows="1" fold="1" page="1" pageScale="1" pageWidth="850" pageHeight="1100" math="0" shadow="0">
      <root>
        <mxCell id="0" />
        <mxCell id="1" parent="0" />
        <mxCell id="Md8r5XUggj6giV_H6LeY-1" value="Cliente" style="shape=umlActor;verticalLabelPosition=bottom;verticalAlign=top;html=1;outlineConnect=0;" vertex="1" parent="1">
          <mxGeometry x="130" y="80" width="30" height="60" as="geometry" />
        </mxCell>
        <mxCell id="Md8r5XUggj6giV_H6LeY-5" value="Entrada" style="html=1;" vertex="1" parent="1">
          <mxGeometry x="360" y="90" width="110" height="50" as="geometry" />
        </mxCell>
        <mxCell id="Md8r5XUggj6giV_H6LeY-6" value="" style="html=1;points=[];perimeter=orthogonalPerimeter;" vertex="1" parent="1">
          <mxGeometry x="140" y="220" width="10" height="320" as="geometry" />
        </mxCell>
        <mxCell id="Md8r5XUggj6giV_H6LeY-7" value="" style="html=1;points=[];perimeter=orthogonalPerimeter;" vertex="1" parent="1">
          <mxGeometry x="410" y="220" width="10" height="140" as="geometry" />
        </mxCell>
        <mxCell id="Md8r5XUggj6giV_H6LeY-8" value="" style="endArrow=none;dashed=1;html=1;dashPattern=1 3;strokeWidth=2;entryX=0.5;entryY=1;entryDx=0;entryDy=0;exitX=0.4;exitY=-0.02;exitDx=0;exitDy=0;exitPerimeter=0;" edge="1" parent="1" source="Md8r5XUggj6giV_H6LeY-7" target="Md8r5XUggj6giV_H6LeY-5">
          <mxGeometry width="50" height="50" relative="1" as="geometry">
            <mxPoint x="390" y="210" as="sourcePoint" />
            <mxPoint x="440" y="160" as="targetPoint" />
          </mxGeometry>
        </mxCell>
        <mxCell id="Md8r5XUggj6giV_H6LeY-9" value="" style="endArrow=none;dashed=1;html=1;dashPattern=1 3;strokeWidth=2;exitX=0.9;exitY=0.007;exitDx=0;exitDy=0;exitPerimeter=0;" edge="1" parent="1">
          <mxGeometry width="50" height="50" relative="1" as="geometry">
            <mxPoint x="138.99999999999977" y="222.24" as="sourcePoint" />
            <mxPoint x="140" y="160" as="targetPoint" />
          </mxGeometry>
        </mxCell>
        <mxCell id="Md8r5XUggj6giV_H6LeY-13" value="" style="endArrow=classic;html=1;exitX=0.9;exitY=0.043;exitDx=0;exitDy=0;exitPerimeter=0;entryX=0;entryY=0.043;entryDx=0;entryDy=0;entryPerimeter=0;" edge="1" parent="1" target="Md8r5XUggj6giV_H6LeY-7">
          <mxGeometry relative="1" as="geometry">
            <mxPoint x="138.99999999999977" y="233.76" as="sourcePoint" />
            <mxPoint x="460" y="280" as="targetPoint" />
            <Array as="points">
              <mxPoint x="280" y="226" />
            </Array>
          </mxGeometry>
        </mxCell>
        <mxCell id="Md8r5XUggj6giV_H6LeY-14" value="&lt;span style=&quot;font-size: 12px ; background-color: rgb(248 , 249 , 250)&quot;&gt;Pegar uma senha&lt;/span&gt;" style="edgeLabel;resizable=0;html=1;align=center;verticalAlign=middle;" connectable="0" vertex="1" parent="Md8r5XUggj6giV_H6LeY-13">
          <mxGeometry relative="1" as="geometry">
            <mxPoint x="-1" as="offset" />
          </mxGeometry>
        </mxCell>
        <mxCell id="Md8r5XUggj6giV_H6LeY-20" value="" style="html=1;points=[];perimeter=orthogonalPerimeter;" vertex="1" parent="1">
          <mxGeometry x="630" y="220" width="10" height="140" as="geometry" />
        </mxCell>
        <mxCell id="Md8r5XUggj6giV_H6LeY-21" value="" style="endArrow=none;dashed=1;html=1;dashPattern=1 3;strokeWidth=2;entryX=0.5;entryY=1;entryDx=0;entryDy=0;exitX=0.6;exitY=-0.014;exitDx=0;exitDy=0;exitPerimeter=0;" edge="1" parent="1" source="Md8r5XUggj6giV_H6LeY-20">
          <mxGeometry width="50" height="50" relative="1" as="geometry">
            <mxPoint x="635" y="210" as="sourcePoint" />
            <mxPoint x="635" y="140" as="targetPoint" />
          </mxGeometry>
        </mxCell>
        <mxCell id="Md8r5XUggj6giV_H6LeY-23" value="" style="endArrow=classic;html=1;exitX=1.3;exitY=0.179;exitDx=0;exitDy=0;exitPerimeter=0;" edge="1" parent="1">
          <mxGeometry relative="1" as="geometry">
            <mxPoint x="425" y="264.05999999999995" as="sourcePoint" />
            <mxPoint x="630" y="260" as="targetPoint" />
            <Array as="points" />
          </mxGeometry>
        </mxCell>
        <mxCell id="Md8r5XUggj6giV_H6LeY-25" value="Opções de atendimento" style="edgeLabel;html=1;align=center;verticalAlign=middle;resizable=0;points=[];" vertex="1" connectable="0" parent="Md8r5XUggj6giV_H6LeY-23">
          <mxGeometry x="0.0616" y="1" relative="1" as="geometry">
            <mxPoint as="offset" />
          </mxGeometry>
        </mxCell>
        <mxCell id="Md8r5XUggj6giV_H6LeY-26" value="Atendente" style="shape=umlActor;verticalLabelPosition=bottom;verticalAlign=top;html=1;outlineConnect=0;" vertex="1" parent="1">
          <mxGeometry x="620" y="70" width="30" height="60" as="geometry" />
        </mxCell>
        <mxCell id="Md8r5XUggj6giV_H6LeY-27" value="Atendimento" style="html=1;" vertex="1" parent="1">
          <mxGeometry x="810" y="90" width="110" height="50" as="geometry" />
        </mxCell>
        <mxCell id="Md8r5XUggj6giV_H6LeY-28" value="" style="endArrow=none;dashed=1;html=1;dashPattern=1 3;strokeWidth=2;" edge="1" parent="1">
          <mxGeometry width="50" height="50" relative="1" as="geometry">
            <mxPoint x="855" y="228" as="sourcePoint" />
            <mxPoint x="855" y="140" as="targetPoint" />
          </mxGeometry>
        </mxCell>
        <mxCell id="Md8r5XUggj6giV_H6LeY-29" value="" style="html=1;points=[];perimeter=orthogonalPerimeter;" vertex="1" parent="1">
          <mxGeometry x="850" y="220" width="10" height="200" as="geometry" />
        </mxCell>
        <mxCell id="Md8r5XUggj6giV_H6LeY-32" value="" style="endArrow=classic;html=1;exitX=1.1;exitY=0.515;exitDx=0;exitDy=0;exitPerimeter=0;" edge="1" parent="1" source="Md8r5XUggj6giV_H6LeY-29">
          <mxGeometry relative="1" as="geometry">
            <mxPoint x="920" y="320" as="sourcePoint" />
            <mxPoint x="1110" y="320" as="targetPoint" />
          </mxGeometry>
        </mxCell>
        <mxCell id="Md8r5XUggj6giV_H6LeY-33" value="Situação do cliente" style="edgeLabel;resizable=0;html=1;align=center;verticalAlign=middle;" connectable="0" vertex="1" parent="Md8r5XUggj6giV_H6LeY-32">
          <mxGeometry relative="1" as="geometry" />
        </mxCell>
        <mxCell id="Md8r5XUggj6giV_H6LeY-34" value="Tela cliente" style="html=1;" vertex="1" parent="1">
          <mxGeometry x="1060" y="90" width="110" height="50" as="geometry" />
        </mxCell>
        <mxCell id="Md8r5XUggj6giV_H6LeY-35" value="" style="endArrow=none;dashed=1;html=1;dashPattern=1 3;strokeWidth=2;entryX=0.5;entryY=1;entryDx=0;entryDy=0;" edge="1" parent="1" target="Md8r5XUggj6giV_H6LeY-34">
          <mxGeometry width="50" height="50" relative="1" as="geometry">
            <mxPoint x="1115" y="230" as="sourcePoint" />
            <mxPoint x="865" y="150" as="targetPoint" />
          </mxGeometry>
        </mxCell>
        <mxCell id="Md8r5XUggj6giV_H6LeY-36" value="" style="html=1;points=[];perimeter=orthogonalPerimeter;" vertex="1" parent="1">
          <mxGeometry x="1110" y="220" width="10" height="160" as="geometry" />
        </mxCell>
        <mxCell id="Md8r5XUggj6giV_H6LeY-37" value="" style="endArrow=classic;html=1;exitX=1.3;exitY=0.179;exitDx=0;exitDy=0;exitPerimeter=0;" edge="1" parent="1">
          <mxGeometry relative="1" as="geometry">
            <mxPoint x="645" y="292.03" as="sourcePoint" />
            <mxPoint x="850" y="287.97" as="targetPoint" />
            <Array as="points" />
          </mxGeometry>
        </mxCell>
        <mxCell id="Md8r5XUggj6giV_H6LeY-38" value="Escolha de atendimento&lt;br&gt;" style="edgeLabel;html=1;align=center;verticalAlign=middle;resizable=0;points=[];" vertex="1" connectable="0" parent="Md8r5XUggj6giV_H6LeY-37">
          <mxGeometry x="0.0616" y="1" relative="1" as="geometry">
            <mxPoint as="offset" />
          </mxGeometry>
        </mxCell>
        <mxCell id="Md8r5XUggj6giV_H6LeY-39" value="" style="endArrow=classic;html=1;" edge="1" parent="1" source="Md8r5XUggj6giV_H6LeY-48">
          <mxGeometry relative="1" as="geometry">
            <mxPoint x="1310" y="390" as="sourcePoint" />
            <mxPoint x="863" y="390" as="targetPoint" />
          </mxGeometry>
        </mxCell>
        <mxCell id="Md8r5XUggj6giV_H6LeY-40" value="Cartão de identificação do cliente" style="edgeLabel;resizable=0;html=1;align=center;verticalAlign=middle;" connectable="0" vertex="1" parent="Md8r5XUggj6giV_H6LeY-39">
          <mxGeometry relative="1" as="geometry" />
        </mxCell>
        <mxCell id="Md8r5XUggj6giV_H6LeY-41" value="Cadastro" style="html=1;" vertex="1" parent="1">
          <mxGeometry x="1280" y="90" width="110" height="50" as="geometry" />
        </mxCell>
        <mxCell id="Md8r5XUggj6giV_H6LeY-42" value="" style="endArrow=none;dashed=1;html=1;dashPattern=1 3;strokeWidth=2;entryX=0.5;entryY=1;entryDx=0;entryDy=0;" edge="1" parent="1">
          <mxGeometry width="50" height="50" relative="1" as="geometry">
            <mxPoint x="1334.5" y="230" as="sourcePoint" />
            <mxPoint x="1334.5" y="140" as="targetPoint" />
          </mxGeometry>
        </mxCell>
        <mxCell id="Md8r5XUggj6giV_H6LeY-43" value="" style="html=1;points=[];perimeter=orthogonalPerimeter;" vertex="1" parent="1">
          <mxGeometry x="1310" y="220" width="10" height="130" as="geometry" />
        </mxCell>
        <mxCell id="Md8r5XUggj6giV_H6LeY-44" value="" style="endArrow=classic;html=1;exitX=1.3;exitY=0.707;exitDx=0;exitDy=0;exitPerimeter=0;" edge="1" parent="1">
          <mxGeometry relative="1" as="geometry">
            <mxPoint x="1120" y="340" as="sourcePoint" />
            <mxPoint x="1310" y="340" as="targetPoint" />
          </mxGeometry>
        </mxCell>
        <mxCell id="Md8r5XUggj6giV_H6LeY-45" value="Fazer o cadastro" style="edgeLabel;resizable=0;html=1;align=center;verticalAlign=middle;" connectable="0" vertex="1" parent="Md8r5XUggj6giV_H6LeY-44">
          <mxGeometry relative="1" as="geometry" />
        </mxCell>
        <mxCell id="Md8r5XUggj6giV_H6LeY-46" value="" style="endArrow=classic;html=1;exitX=-0.3;exitY=0.947;exitDx=0;exitDy=0;exitPerimeter=0;" edge="1" parent="1">
          <mxGeometry relative="1" as="geometry">
            <mxPoint x="850" y="399.99999999999994" as="sourcePoint" />
            <mxPoint x="141" y="400" as="targetPoint" />
          </mxGeometry>
        </mxCell>
        <mxCell id="Md8r5XUggj6giV_H6LeY-47" value="Cartão de identificação entregue ao cliente" style="edgeLabel;resizable=0;html=1;align=center;verticalAlign=middle;" connectable="0" vertex="1" parent="Md8r5XUggj6giV_H6LeY-46">
          <mxGeometry relative="1" as="geometry" />
        </mxCell>
        <mxCell id="Md8r5XUggj6giV_H6LeY-48" value="" style="html=1;points=[];perimeter=orthogonalPerimeter;" vertex="1" parent="1">
          <mxGeometry x="1330" y="380" width="10" height="40" as="geometry" />
        </mxCell>
        <mxCell id="Md8r5XUggj6giV_H6LeY-49" value="Exames pedidos" style="html=1;" vertex="1" parent="1">
          <mxGeometry x="1480" y="90" width="110" height="50" as="geometry" />
        </mxCell>
        <mxCell id="Md8r5XUggj6giV_H6LeY-50" value="" style="endArrow=none;dashed=1;html=1;dashPattern=1 3;strokeWidth=2;entryX=0.5;entryY=1;entryDx=0;entryDy=0;" edge="1" parent="1">
          <mxGeometry width="50" height="50" relative="1" as="geometry">
            <mxPoint x="1534.29" y="230" as="sourcePoint" />
            <mxPoint x="1534.29" y="140" as="targetPoint" />
          </mxGeometry>
        </mxCell>
        <mxCell id="Md8r5XUggj6giV_H6LeY-51" value="" style="html=1;points=[];perimeter=orthogonalPerimeter;" vertex="1" parent="1">
          <mxGeometry x="1530" y="225" width="10" height="150" as="geometry" />
        </mxCell>
        <mxCell id="Md8r5XUggj6giV_H6LeY-52" value="" style="endArrow=classic;html=1;exitX=1.3;exitY=0.707;exitDx=0;exitDy=0;exitPerimeter=0;entryX=-0.3;entryY=0.973;entryDx=0;entryDy=0;entryPerimeter=0;" edge="1" parent="1" target="Md8r5XUggj6giV_H6LeY-51">
          <mxGeometry relative="1" as="geometry">
            <mxPoint x="1120" y="370" as="sourcePoint" />
            <mxPoint x="1328" y="370" as="targetPoint" />
          </mxGeometry>
        </mxCell>
        <mxCell id="Md8r5XUggj6giV_H6LeY-53" value="Realizar pedido dos exames" style="edgeLabel;resizable=0;html=1;align=center;verticalAlign=middle;" connectable="0" vertex="1" parent="Md8r5XUggj6giV_H6LeY-52">
          <mxGeometry relative="1" as="geometry" />
        </mxCell>
        <mxCell id="Md8r5XUggj6giV_H6LeY-54" value="Resultado exames" style="html=1;" vertex="1" parent="1">
          <mxGeometry x="1650" y="80" width="110" height="50" as="geometry" />
        </mxCell>
        <mxCell id="Md8r5XUggj6giV_H6LeY-55" value="" style="endArrow=none;dashed=1;html=1;dashPattern=1 3;strokeWidth=2;entryX=0.5;entryY=1;entryDx=0;entryDy=0;" edge="1" parent="1">
          <mxGeometry width="50" height="50" relative="1" as="geometry">
            <mxPoint x="1704.29" y="220" as="sourcePoint" />
            <mxPoint x="1704.29" y="130" as="targetPoint" />
          </mxGeometry>
        </mxCell>
        <mxCell id="Md8r5XUggj6giV_H6LeY-56" value="" style="html=1;points=[];perimeter=orthogonalPerimeter;" vertex="1" parent="1">
          <mxGeometry x="1700" y="212.5" width="10" height="335" as="geometry" />
        </mxCell>
        <mxCell id="Md8r5XUggj6giV_H6LeY-58" value="" style="html=1;points=[];perimeter=orthogonalPerimeter;" vertex="1" parent="1">
          <mxGeometry x="640" y="450" width="10" height="90" as="geometry" />
        </mxCell>
        <mxCell id="Md8r5XUggj6giV_H6LeY-62" value="" style="endArrow=classic;html=1;entryX=-0.2;entryY=0.333;entryDx=0;entryDy=0;entryPerimeter=0;" edge="1" parent="1" target="Md8r5XUggj6giV_H6LeY-58">
          <mxGeometry relative="1" as="geometry">
            <mxPoint x="153" y="479" as="sourcePoint" />
            <mxPoint x="355" y="467.97" as="targetPoint" />
            <Array as="points" />
          </mxGeometry>
        </mxCell>
        <mxCell id="Md8r5XUggj6giV_H6LeY-63" value="Pede o resultado dos exames" style="edgeLabel;html=1;align=center;verticalAlign=middle;resizable=0;points=[];" vertex="1" connectable="0" parent="Md8r5XUggj6giV_H6LeY-62">
          <mxGeometry x="0.0616" y="1" relative="1" as="geometry">
            <mxPoint as="offset" />
          </mxGeometry>
        </mxCell>
        <mxCell id="Md8r5XUggj6giV_H6LeY-64" value="" style="endArrow=classic;html=1;exitX=1.3;exitY=0.959;exitDx=0;exitDy=0;exitPerimeter=0;entryX=0;entryY=0.797;entryDx=0;entryDy=0;entryPerimeter=0;" edge="1" parent="1" target="Md8r5XUggj6giV_H6LeY-56">
          <mxGeometry relative="1" as="geometry">
            <mxPoint x="650" y="480.00000000000006" as="sourcePoint" />
            <mxPoint x="1137" y="480.07" as="targetPoint" />
            <Array as="points" />
          </mxGeometry>
        </mxCell>
        <mxCell id="Md8r5XUggj6giV_H6LeY-65" value="Pede o resultado dos exames" style="edgeLabel;html=1;align=center;verticalAlign=middle;resizable=0;points=[];" vertex="1" connectable="0" parent="Md8r5XUggj6giV_H6LeY-64">
          <mxGeometry x="0.0616" y="1" relative="1" as="geometry">
            <mxPoint as="offset" />
          </mxGeometry>
        </mxCell>
        <mxCell id="Md8r5XUggj6giV_H6LeY-66" value="" style="endArrow=classic;html=1;entryX=1.2;entryY=0.767;entryDx=0;entryDy=0;entryPerimeter=0;exitX=-0.1;exitY=0.916;exitDx=0;exitDy=0;exitPerimeter=0;" edge="1" parent="1" source="Md8r5XUggj6giV_H6LeY-56" target="Md8r5XUggj6giV_H6LeY-58">
          <mxGeometry relative="1" as="geometry">
            <mxPoint x="1972" y="500" as="sourcePoint" />
            <mxPoint x="1890" y="491.995" as="targetPoint" />
            <Array as="points">
              <mxPoint x="1280" y="519" />
            </Array>
          </mxGeometry>
        </mxCell>
        <mxCell id="Md8r5XUggj6giV_H6LeY-67" value="Informa o resultado" style="edgeLabel;html=1;align=center;verticalAlign=middle;resizable=0;points=[];" vertex="1" connectable="0" parent="Md8r5XUggj6giV_H6LeY-66">
          <mxGeometry x="0.0616" y="1" relative="1" as="geometry">
            <mxPoint as="offset" />
          </mxGeometry>
        </mxCell>
        <mxCell id="Md8r5XUggj6giV_H6LeY-68" value="" style="endArrow=classic;html=1;entryX=1.3;entryY=0.944;entryDx=0;entryDy=0;entryPerimeter=0;" edge="1" parent="1" target="Md8r5XUggj6giV_H6LeY-6">
          <mxGeometry relative="1" as="geometry">
            <mxPoint x="640" y="522" as="sourcePoint" />
            <mxPoint x="32" y="510.03" as="targetPoint" />
            <Array as="points">
              <mxPoint x="640" y="520" />
            </Array>
          </mxGeometry>
        </mxCell>
        <mxCell id="Md8r5XUggj6giV_H6LeY-69" value="Informa o resultado" style="edgeLabel;html=1;align=center;verticalAlign=middle;resizable=0;points=[];" vertex="1" connectable="0" parent="Md8r5XUggj6giV_H6LeY-68">
          <mxGeometry x="0.0616" y="1" relative="1" as="geometry">
            <mxPoint as="offset" />
          </mxGeometry>
        </mxCell>
      </root>
    </mxGraphModel>
  </diagram>
</mxfile>
